<svg version="1.1" baseProfile="full" width="465.0" height="480.0" viewBox="0 0 465 480" xmlns="http://www.w3.org/2000/svg" xmlns:xlink="http://www.w3.org/1999/xlink" xmlns:ev="http://www.w3.org/2001/xml-events">
	<desc>
	#direction: down
	#gravity: 0
	[&lt;start&gt; start]-&gt;[&lt;database&gt; Corpora (Textos Brutos)] -&gt; [Treinamento do Tokenizador] -&gt; [Modelo de Tokenização]
	[&lt;database&gt; Corpora (Textos Brutos)] -&gt; [Modelo de Tokenização] -&gt; [&lt;database&gt; Corpora Tokenizado (Textos Brutos Tokenizados)]-&gt;[Treinamento do Modelo N-gram]-&gt;[Modelo N-gram com Sub-Words]-:[&lt;end&gt; end]</desc>
	<g stroke-width="1.0" text-align="left" font="12pt Helvetica, Arial, sans-serif" font-size="12pt" font-family="Helvetica" font-weight="bold" font-style="normal">
		<g font-family="Helvetica" font-size="12pt" font-weight="bold" font-style="normal" stroke-width="3.0" stroke-linejoin="round" stroke-linecap="round" stroke="#33322E">
			<g stroke="transparent" fill="transparent">
				<rect x="0.0" y="0.0" height="480.0" width="465.0" stroke="none"/>
			</g>
			<g transform="translate(8, 8)" fill="#33322E">
				<g transform="translate(20, 20)" fill="#33322E" font-family="Helvetica" font-size="12pt" font-weight="normal" font-style="normal">
					<path d="M204.5 30.0 L204.5 43.3 " fill="none"/>
					<path d="M199.2 36.7 L204.5 43.3 L209.8 36.7 L204.5 50.0 Z"/>
					<path d="M172.2 98.0 L150.6 114.0 " fill="none"/>
					<path d="M152.8 105.8 L150.6 114.0 L159.2 114.3 L145.3 118.0 Z"/>
					<path d="M148.6 150.0 L174.0 166.4 " fill="none"/>
					<path d="M165.6 167.3 L174.0 166.4 L171.3 158.3 L179.7 170.0 Z"/>
					<path d="M236.8 98.0 L285.25 134 L234.95118954624783 166.39056524575992 L235.0 166.4 " fill="none"/>
					<path d="M237.7 158.3 L235.0 166.4 L243.4 167.3 L229.3 170.0 Z"/>
					<path d="M204.5 202.0 L204.5 215.3 " fill="none"/>
					<path d="M199.2 208.7 L204.5 215.3 L209.8 208.7 L204.5 222.0 Z"/>
					<path d="M204.5 270.0 L204.5 283.3 " fill="none"/>
					<path d="M199.2 276.7 L204.5 283.3 L209.8 276.7 L204.5 290.0 Z"/>
					<path d="M204.5 322.0 L204.5 335.3 " fill="none"/>
					<path d="M199.2 328.7 L204.5 335.3 L209.8 328.7 L204.5 342.0 Z"/>
					<text x="191.5" y="386.0" stroke="none">:</text>
					<path d="M204.5 374.0 L204.5 394.0 " fill="none"/>
					<g data-name="start">
						<g fill="#33322E" stroke="#33322E" data-name="start">
							<circle r="12.0" cx="204.5" cy="15.0" stroke="none" data-name="start"/>
						</g>
					</g>
					<g data-name="Corpora (Textos Brutos)">
						<g fill="#eee8d5" stroke="#33322E" data-name="Corpora (Textos Brutos)">
							<rect x="101.5" y="58.0" height="32.0" width="206.0" stroke="none" data-name="Corpora (Textos Brutos)"/>
							<path d="M101.5 58.0 L101.5 90.0" fill="none" data-name="Corpora (Textos Brutos)"/>
							<path d="M307.5 58.0 L307.5 90.0" fill="none" data-name="Corpora (Textos Brutos)"/>
							<ellipse cx="204.5" cy="58.0" rx="103.0" ry="6.0" data-name="Corpora (Textos Brutos)"/>
							<path d="M307.5 90.0 L307.4 90.3 L307.0 90.6 L306.3 90.9 L305.5 91.2 L304.3 91.5 L302.9 91.8 L301.3 92.1 L299.4 92.3 L297.3 92.6 L295.0 92.9 L292.4 93.1 L289.6 93.4 L286.6 93.6 L283.4 93.9 L280.0 94.1 L276.4 94.3 L272.7 94.5 L268.7 94.7 L264.6 94.9 L260.4 95.0 L256.0 95.2 L251.5 95.3 L246.9 95.5 L242.1 95.6 L237.3 95.7 L232.4 95.8 L227.4 95.8 L222.4 95.9 L217.3 96.0 L212.2 96.0 L207.1 96.0 L201.9 96.0 L196.8 96.0 L191.7 96.0 L186.6 95.9 L181.6 95.8 L176.6 95.8 L171.7 95.7 L166.9 95.6 L162.1 95.5 L157.5 95.3 L153.0 95.2 L148.6 95.0 L144.4 94.9 L140.3 94.7 L136.3 94.5 L132.6 94.3 L129.0 94.1 L125.6 93.9 L122.4 93.6 L119.4 93.4 L116.6 93.1 L114.0 92.9 L111.7 92.6 L109.6 92.3 L107.7 92.1 L106.1 91.8 L104.7 91.5 L103.5 91.2 L102.7 90.9 L102.0 90.6 L101.6 90.3 L101.5 90.0" data-name="Corpora (Textos Brutos)"/>
						</g>
						<g transform="translate(101.5, 62)" font-family="Helvetica" font-size="12pt" font-weight="bold" font-style="normal" data-name="Corpora (Textos Brutos)" data-compartment="0">
							<g transform="translate(8, 8)" fill="#33322E" text-align="center" data-name="Corpora (Textos Brutos)" data-compartment="0">
								<text x="95.0" y="14.1" stroke="none" text-anchor="middle" data-name="Corpora (Textos Brutos)" data-compartment="0">Corpora (Textos Brutos)</text>
								
							</g>
						</g>
					</g>
					<g data-name="Treinamento do Tokenizador">
						<g fill="#eee8d5" stroke="#33322E" data-name="Treinamento do Tokenizador">
							<rect x="2.3" y="118.0" height="32.0" width="243.0" data-name="Treinamento do Tokenizador"/>
						</g>
						<g transform="translate(2.25, 118)" font-family="Helvetica" font-size="12pt" font-weight="bold" font-style="normal" data-name="Treinamento do Tokenizador" data-compartment="0">
							<g transform="translate(8, 8)" fill="#33322E" text-align="center" data-name="Treinamento do Tokenizador" data-compartment="0">
								<text x="113.5" y="14.1" stroke="none" text-anchor="middle" data-name="Treinamento do Tokenizador" data-compartment="0">Treinamento do Tokenizador</text>
								
							</g>
						</g>
					</g>
					<g data-name="Modelo de Tokenização">
						<g fill="#eee8d5" stroke="#33322E" data-name="Modelo de Tokenização">
							<rect x="95.5" y="170.0" height="32.0" width="218.0" data-name="Modelo de Tokenização"/>
						</g>
						<g transform="translate(95.5, 170)" font-family="Helvetica" font-size="12pt" font-weight="bold" font-style="normal" data-name="Modelo de Tokenização" data-compartment="0">
							<g transform="translate(8, 8)" fill="#33322E" text-align="center" data-name="Modelo de Tokenização" data-compartment="0">
								<text x="101.0" y="14.1" stroke="none" text-anchor="middle" data-name="Modelo de Tokenização" data-compartment="0">Modelo de Tokenização</text>
								
							</g>
						</g>
					</g>
					<g data-name="Corpora Tokenizado (Textos Brutos Tokenizados)">
						<g fill="#eee8d5" stroke="#33322E" data-name="Corpora Tokenizado (Textos Brutos Tokenizados)">
							<rect x="0.0" y="230.0" height="32.0" width="409.0" stroke="none" data-name="Corpora Tokenizado (Textos Brutos Tokenizados)"/>
							<path d="M0.0 230.0 L0.0 262.0" fill="none" data-name="Corpora Tokenizado (Textos Brutos Tokenizados)"/>
							<path d="M409.0 230.0 L409.0 262.0" fill="none" data-name="Corpora Tokenizado (Textos Brutos Tokenizados)"/>
							<ellipse cx="204.5" cy="230.0" rx="204.5" ry="6.0" data-name="Corpora Tokenizado (Textos Brutos Tokenizados)"/>
							<path d="M409.0 262.0 L408.7 262.3 L408.0 262.6 L406.7 262.9 L404.9 263.2 L402.7 263.5 L399.9 263.8 L396.7 264.1 L392.9 264.3 L388.7 264.6 L384.1 264.9 L379.0 265.1 L373.5 265.4 L367.5 265.6 L361.2 265.9 L354.4 266.1 L347.3 266.3 L339.8 266.5 L332.0 266.7 L323.9 266.9 L315.5 267.0 L306.7 267.2 L297.8 267.3 L288.6 267.5 L279.2 267.6 L269.6 267.7 L259.9 267.8 L250.0 267.8 L240.0 267.9 L229.9 268.0 L219.8 268.0 L209.6 268.0 L199.4 268.0 L189.2 268.0 L179.1 268.0 L169.0 267.9 L159.0 267.8 L149.1 267.8 L139.4 267.7 L129.8 267.6 L120.4 267.5 L111.2 267.3 L102.2 267.2 L93.5 267.0 L85.1 266.9 L77.0 266.7 L69.2 266.5 L61.7 266.3 L54.6 266.1 L47.8 265.9 L41.5 265.6 L35.5 265.4 L30.0 265.1 L24.9 264.9 L20.3 264.6 L16.1 264.3 L12.3 264.1 L9.1 263.8 L6.3 263.5 L4.1 263.2 L2.3 262.9 L1.0 262.6 L0.3 262.3 L0.0 262.0" data-name="Corpora Tokenizado (Textos Brutos Tokenizados)"/>
						</g>
						<g transform="translate(0, 234)" font-family="Helvetica" font-size="12pt" font-weight="bold" font-style="normal" data-name="Corpora Tokenizado (Textos Brutos Tokenizados)" data-compartment="0">
							<g transform="translate(8, 8)" fill="#33322E" text-align="center" data-name="Corpora Tokenizado (Textos Brutos Tokenizados)" data-compartment="0">
								<text x="196.5" y="14.1" stroke="none" text-anchor="middle" data-name="Corpora Tokenizado (Textos Brutos Tokenizados)" data-compartment="0">Corpora Tokenizado (Textos Brutos Tokenizados)</text>
								
							</g>
						</g>
					</g>
					<g data-name="Treinamento do Modelo N-gram">
						<g fill="#eee8d5" stroke="#33322E" data-name="Treinamento do Modelo N-gram">
							<rect x="71.5" y="290.0" height="32.0" width="266.0" data-name="Treinamento do Modelo N-gram"/>
						</g>
						<g transform="translate(71.5, 290)" font-family="Helvetica" font-size="12pt" font-weight="bold" font-style="normal" data-name="Treinamento do Modelo N-gram" data-compartment="0">
							<g transform="translate(8, 8)" fill="#33322E" text-align="center" data-name="Treinamento do Modelo N-gram" data-compartment="0">
								<text x="125.0" y="14.1" stroke="none" text-anchor="middle" data-name="Treinamento do Modelo N-gram" data-compartment="0">Treinamento do Modelo N-gram</text>
								
							</g>
						</g>
					</g>
					<g data-name="Modelo N-gram com Sub-Words">
						<g fill="#eee8d5" stroke="#33322E" data-name="Modelo N-gram com Sub-Words">
							<rect x="70.5" y="342.0" height="32.0" width="268.0" data-name="Modelo N-gram com Sub-Words"/>
						</g>
						<g transform="translate(70.5, 342)" font-family="Helvetica" font-size="12pt" font-weight="bold" font-style="normal" data-name="Modelo N-gram com Sub-Words" data-compartment="0">
							<g transform="translate(8, 8)" fill="#33322E" text-align="center" data-name="Modelo N-gram com Sub-Words" data-compartment="0">
								<text x="126.0" y="14.1" stroke="none" text-anchor="middle" data-name="Modelo N-gram com Sub-Words" data-compartment="0">Modelo N-gram com Sub-Words</text>
								
							</g>
						</g>
					</g>
					<g data-name="end">
						<g fill="#33322E" stroke="#33322E" data-name="end">
							<circle r="10.0" cx="204.5" cy="409.0" data-name="end"/>
							<circle r="6.0" cx="204.5" cy="409.0" stroke="none" data-name="end"/>
						</g>
					</g>
				</g>
			</g>
		</g>
	</g>
</svg>